<svg xmlns="http://www.w3.org/2000/svg" xmlns:xlink="http://www.w3.org/1999/xlink" viewBox="0 0 612 792"><defs><path id="a" d="M152.2 365.1l-35.6 61.4h14.2l7-12.1h44.4l6.9 12.1h14l-35.5-61.4h-15.4zm8 10.9l15.8 27.5h-32l16-27.5h.2z"/></defs><use xlink:href="#a" overflow="visible" fill-rule="evenodd" clip-rule="evenodd" fill="#222"/><clipPath id="b"><use xlink:href="#a" overflow="visible"/></clipPath><g clip-path="url(#b)"><defs><path id="c" d="M115.4 363.6H606v66.6H115.4z"/></defs><use xlink:href="#c" overflow="visible" fill="#222"/><clipPath id="d"><use xlink:href="#c" overflow="visible"/></clipPath><path clip-path="url(#d)" fill="#222" d="M99.5 348h120.7v95.7H99.5z"/></g><defs><path id="e" d="M264.2 404.4c-.2 6.4-.5 7.8-.6 8.1v.1c-.2.6-.6 1.1-1.1 1.4-.5.3-1.6.7-4 1-1 .1-3.6.3-7.5.4-4 .2-7.3.2-9.8.2-8.1 0-14.4-.2-18.7-.7-1.8-.2-3.2-.6-3.9-1.2-.7-.6-1.2-1.9-1.5-3.6-.2-1.3-.4-3.8-.6-7.5-.2-3.7-.3-6.7-.3-9 0-4.8.3-8.6.7-11.3.6-3.2 1.4-4.1 1.7-4.3.4-.3 1.7-1 6.4-1.5 3.7-.4 9.4-.6 16.9-.6 12.7 0 17.5.8 19.3 1.6 1 .4 1.6.9 1.9 1.6.2.5.6 1.8.6 5v4.1h12v-1.7c-.1-5.5-.3-9-.8-10.8-.5-2.2-1.8-4.2-3.7-5.9-1.9-1.6-4.1-2.8-6.7-3.3-4.6-1-11.9-1.5-22.3-1.5-10.7 0-18.9.4-24.5 1.2-6.7 1-10.9 4.4-12.5 10.2-1.2 4.3-1.8 11-1.8 20.4 0 9.9.8 16.7 2.5 20.6 1.8 4.3 5.3 6.9 10.5 8 4.8.9 13.6 1.4 27 1.4 10.3 0 17.4-.4 21.5-1.2 5.8-1.2 9.3-4.4 10.5-9.5.5-2.1.8-5.8 1-11.5l.1-1.7h-12.3v1.5z"/></defs><use xlink:href="#e" overflow="visible" fill-rule="evenodd" clip-rule="evenodd" fill="#222"/><clipPath id="f"><use xlink:href="#e" overflow="visible"/></clipPath><g clip-path="url(#f)"><defs><path id="g" d="M115.4 363.6H606v66.6H115.4z"/></defs><use xlink:href="#g" overflow="visible" fill="#222"/><clipPath id="h"><use xlink:href="#g" overflow="visible"/></clipPath><path clip-path="url(#h)" fill="#222" d="M186.4 347.8h107.4v96.1H186.4z"/></g><defs><path id="i" d="M334.5 387.1c-1.9-1.9-4.6-3.3-7.9-4-3.1-.7-7.5-1-13.3-1-7 0-11.9.5-15.1 1.5-1.4.4-2.6 1-3.7 1.7v-20.2h-11.2v61.4h11.2v-20.8c0-4.5.2-6.5.4-7.4.2-1.1.8-2.1 1.6-3 1.1-1.2 2.8-2.1 5.1-2.6 2.5-.6 6.2-.9 10.9-.9 4.2 0 7.3.2 9.4.7 1.8.4 3 1 3.7 1.9.7.9 1.2 1.9 1.4 3.2.3 1.4.4 4.2.4 8.2v20.8h11.2v-22.8c0-4.9-.2-8.4-.7-10.6-.7-2.4-1.8-4.4-3.4-6.1"/></defs><use xlink:href="#i" overflow="visible" fill-rule="evenodd" clip-rule="evenodd" fill="#222"/><clipPath id="j"><use xlink:href="#i" overflow="visible"/></clipPath><g clip-path="url(#j)"><defs><path id="k" d="M115.4 363.6H606v66.6H115.4z"/></defs><use xlink:href="#k" overflow="visible" fill="#222"/><clipPath id="l"><use xlink:href="#k" overflow="visible"/></clipPath><path clip-path="url(#l)" fill="#222" d="M266.2 348h89.4v95.7h-89.4z"/></g><defs><path id="m" d="M402.1 406.4c-.1-5.2-.4-8.9-1-11.4-.6-2.6-1.9-4.9-3.6-6.9-2.2-2.4-5.1-4-8.6-4.9-3.4-.8-8.6-1.2-15.8-1.2-7.6 0-13 .5-16.5 1.6-3.7 1.2-6.5 3.4-8.4 6.7-1.9 3.3-2.9 7.9-2.9 14.3 0 9.1 2.4 15.3 7.1 18.6 2.1 1.4 5.1 2.4 9 3 3.7.5 9 .8 15.9.8 8.8 0 14.8-1 18.6-3.2 4-2.3 6.1-6.3 6.2-12.1V410h-11.3l-.2 1.5c-.3 2.5-.8 3.3-1 3.6-.7.7-1.9 1.3-3.5 1.6-1.9.4-5.1.6-9.5.6-5.9 0-10.1-.2-12.6-.6-2.2-.4-3.8-1-4.6-1.9-1.2-1.3-2-3.5-2.3-6.7h45.2l-.2-1.7zm-38.3-14.1c2-.3 5-.5 9-.5 4.6 0 8.1.2 10.4.6 2.1.3 3.7.9 4.7 1.7 1.2.9 1.9 2.4 2.2 4.4h-32.8c.4-2.2 1.2-3.7 2.4-4.6.9-.8 2.3-1.3 4.1-1.6z"/></defs><use xlink:href="#m" overflow="visible" fill-rule="evenodd" clip-rule="evenodd" fill="#222"/><clipPath id="n"><use xlink:href="#m" overflow="visible"/></clipPath><g clip-path="url(#n)"><defs><path id="o" d="M115.4 363.6H606v66.6H115.4z"/></defs><use xlink:href="#o" overflow="visible" fill="#222"/><clipPath id="p"><use xlink:href="#o" overflow="visible"/></clipPath><path clip-path="url(#p)" fill="#222" d="M328 364.9h91.2v79.3H328z"/></g><defs><path id="q" d="M452.3 409.6c-.1 2.3-.5 5.3-2.3 6.3-1.1.6-4.1 1.4-11.7 1.4-9.9 0-13.6-.8-15-1.5-1.3-.6-2.2-1.7-2.8-3.2-.7-1.7-1.1-4.2-1.1-7.4 0-3.4.3-6.1.9-8 .5-1.7 1.3-2.9 2.3-3.5 1.3-.8 4.6-1.8 13-1.8 8.7 0 12.2.8 13.6 1.5 1.6.8 2.5 2.8 2.6 6v1.7h11.5l-.1-1.8c-.1-3.1-.5-5.4-1.1-7.2-.6-1.8-1.7-3.5-3.1-4.8-2-2-4.8-3.3-8.4-4.1-3.4-.7-8.4-1.1-15.1-1.1-7.6 0-12.9.5-16.4 1.7-3.7 1.2-6.6 3.5-8.5 6.8-1.9 3.3-2.8 7.9-2.8 14.1 0 8.9 2.3 15.1 6.8 18.5 2.1 1.5 5.1 2.6 8.8 3.1 3.5.5 8.9.8 16.1.8 5.5 0 9.6-.3 12.5-1 3.1-.7 5.6-2.1 7.5-4 2.5-2.6 3.9-6.7 4-12.3v-1.7h-11.3l.1 1.5z"/></defs><use xlink:href="#q" overflow="visible" fill-rule="evenodd" clip-rule="evenodd" fill="#222"/><clipPath id="r"><use xlink:href="#q" overflow="visible"/></clipPath><g clip-path="url(#r)"><defs><path id="s" d="M115.4 363.6H606v66.6H115.4z"/></defs><use xlink:href="#s" overflow="visible" fill="#222"/><clipPath id="t"><use xlink:href="#s" overflow="visible"/></clipPath><path clip-path="url(#t)" fill="#222" d="M390.8 364.9h90v79.3h-90z"/></g><defs><path id="u" d="M525.1 382.6h-18.3l-24.6 15.3h-.6v-32.8h-11.2v61.4h11.2v-18.9l28.8 18.9H529l-35.6-23.7z"/></defs><use xlink:href="#u" overflow="visible" fill-rule="evenodd" clip-rule="evenodd" fill="#222"/><clipPath id="v"><use xlink:href="#u" overflow="visible"/></clipPath><g clip-path="url(#v)"><defs><path id="w" d="M115.4 363.6H606v66.6H115.4z"/></defs><use xlink:href="#w" overflow="visible" fill="#222"/><clipPath id="x"><use xlink:href="#w" overflow="visible"/></clipPath><path clip-path="url(#x)" fill="#222" d="M453.3 348h92.8v95.7h-92.8z"/></g><defs><path id="y" d="M529.3 382.6h11.2v44h-11.2z"/></defs><use xlink:href="#y" overflow="visible" fill="#222"/><clipPath id="z"><use xlink:href="#y" overflow="visible"/></clipPath><path clip-path="url(#z)" fill="#222" d="M512.1 365.4h45.5v78.3h-45.5z"/><defs><path id="A" d="M529.3 368h11.2v11.7h-11.2z"/></defs><use xlink:href="#A" overflow="visible" fill="#222"/><clipPath id="B"><use xlink:href="#A" overflow="visible"/></clipPath><path clip-path="url(#B)" fill="#222" d="M512.1 350.9h45.5v46h-45.5z"/><defs><path id="C" d="M602.9 392.9c-.6-2.3-1.6-4.2-3.1-5.8-1.9-2-4.6-3.3-7.8-4.1-3.1-.7-7.5-1-13.6-1-7 0-12 .5-15.1 1.5-1.3.4-2.5 1-3.5 1.7v-2.7h-11.2v44h11.2V406c0-3.6.1-6.1.4-7.4.2-1.2.7-2.2 1.4-3.1 1.1-1.2 2.8-2.2 5.1-2.8 2.5-.6 6.2-1 10.9-1 4.2 0 7.4.2 9.4.7 1.8.4 3 1 3.8 1.9.7.8 1.1 1.8 1.4 3 .3 1.4.4 3.8.4 7.3v21.9h11.2V402c0-3.9-.3-6.9-.9-9.1"/></defs><use xlink:href="#C" overflow="visible" fill-rule="evenodd" clip-rule="evenodd" fill="#222"/><clipPath id="D"><use xlink:href="#C" overflow="visible"/></clipPath><g clip-path="url(#D)"><defs><path id="E" d="M115.4 363.6H606v66.6H115.4z"/></defs><use xlink:href="#E" overflow="visible" fill="#222"/><clipPath id="F"><use xlink:href="#E" overflow="visible"/></clipPath><path clip-path="url(#F)" fill="#222" d="M531.5 364.9h89.4v78.8h-89.4z"/></g><defs><path id="G" d="M46.8 369c-2.4 3.6-4 7.7-4.8 12.1 1.4-.4 2.8-.8 4.3-1 5.7-.9 11.2-.3 16.3 1.5 1.1-1.3 2.5-2.5 4-3.4-5.3-5.1-12.2-8.5-19.8-9.2zm14.6 14.1c-3.8-.8-7.7-.9-11.7-.3-.9.2-1.9.3-2.8.6-.8 2.6-1.3 5.2-1.4 8 3.6-2.2 7.6-3.7 12-4.4l2.1-.3c.5-1.3 1.1-2.5 1.8-3.6zm-2.3 5.3c-2.8.7-5.5 1.7-7.9 3-.4 1.8-.4 3.8-.1 5.7.2 1.1.4 2.1.8 3.1 1.4-3.2 3.8-5.8 6.8-7.6-.1-1.4.1-2.8.4-4.2zm-5.4-27.8c12.3 0 22.2 10 22.2 22.2S65.9 405 53.7 405c-12.3 0-22.2-10-22.2-22.2s9.9-22.2 22.2-22.2zm0-23.3c25.1 0 45.5 20.4 45.5 45.5 0 5.3-.9 10.6-2.7 15.5-4.1-1-8.2-1.7-12.3-2.2 1.8-4.2 2.8-8.7 2.8-13.3 0-18.4-14.9-33.3-33.3-33.3s-33.3 14.9-33.3 33.3c0 7 2.2 13.7 6.3 19.4l1 1.5 2.5 3.5c-3.5 2-7 4.2-10.2 6.7l-3.2-4.5c-5.6-7.8-8.6-17-8.6-26.5 0-25.1 20.4-45.6 45.5-45.6zm25.7 66.9l1.1-1.5c4.4.3 8.8 1 13.2 2-.8 1.5-1.8 3-2.8 4.4l-.2.3-1.4 1.9-28 39.6c-1.8 2.4-4.6 3.8-7.5 3.8-2.9 0-5.7-1.4-7.5-3.7l-.1-.1-.1-.1-1.5-2.1L24 419.6c3.2-2.4 6.5-4.6 9.9-6.5l.3-.2 19.4 27.5.5-.7c-.2.3-.4.7-.6 1 .2-.3.3-.5.5-.8l.1-.2 25.3-35.5 1.1-1.5-1.1 1.5z"/></defs><use xlink:href="#G" overflow="visible" fill-rule="evenodd" clip-rule="evenodd" fill="#222"/><clipPath id="H"><use xlink:href="#G" overflow="visible"/></clipPath><path clip-path="url(#H)" fill="#222" d="M7.5 336.6H100v118.8H7.5z"/></svg>